<svg xmlns="http://www.w3.org/2000/svg" xmlns:xlink="http://www.w3.org/1999/xlink" width="2000" zoomAndPan="magnify" viewBox="0 0 1500 1499.999933" height="2000" preserveAspectRatio="xMidYMid meet" version="1.0"><defs><clipPath id="33437506da"><path d="M 35.316406 35.316406 L 1464.816406 35.316406 L 1464.816406 1464.816406 L 35.316406 1464.816406 Z M 35.316406 35.316406 " clip-rule="nonzero"/></clipPath></defs><g clip-path="url(#33437506da)"><path fill="#000000" d="M 1464.816406 750.066406 C 1464.816406 761.765625 1464.53125 773.457031 1463.957031 785.136719 C 1463.382812 796.820312 1462.523438 808.484375 1461.375 820.125 C 1460.230469 831.765625 1458.796875 843.371094 1457.082031 854.941406 C 1455.363281 866.515625 1453.367188 878.035156 1451.082031 889.507812 C 1448.800781 900.980469 1446.238281 912.390625 1443.398438 923.738281 C 1440.554688 935.085938 1437.4375 946.355469 1434.039062 957.546875 C 1430.644531 968.742188 1426.976562 979.847656 1423.035156 990.859375 C 1419.09375 1001.871094 1414.886719 1012.785156 1410.410156 1023.589844 C 1405.933594 1034.398438 1401.195312 1045.089844 1396.195312 1055.664062 C 1391.191406 1066.238281 1385.933594 1076.683594 1380.421875 1087 C 1374.90625 1097.3125 1369.140625 1107.488281 1363.128906 1117.523438 C 1357.113281 1127.554688 1350.859375 1137.433594 1344.359375 1147.160156 C 1337.863281 1156.886719 1331.128906 1166.449219 1324.160156 1175.84375 C 1317.191406 1185.238281 1309.996094 1194.457031 1302.578125 1203.5 C 1295.15625 1212.542969 1287.519531 1221.398438 1279.664062 1230.0625 C 1271.808594 1238.730469 1263.742188 1247.199219 1255.472656 1255.472656 C 1247.199219 1263.742188 1238.730469 1271.804688 1230.0625 1279.660156 C 1221.398438 1287.515625 1212.542969 1295.15625 1203.5 1302.578125 C 1194.457031 1309.996094 1185.238281 1317.191406 1175.84375 1324.160156 C 1166.449219 1331.128906 1156.886719 1337.863281 1147.160156 1344.359375 C 1137.433594 1350.859375 1127.554688 1357.113281 1117.523438 1363.128906 C 1107.488281 1369.144531 1097.316406 1374.90625 1087 1380.421875 C 1076.683594 1385.933594 1066.238281 1391.191406 1055.664062 1396.195312 C 1045.089844 1401.195312 1034.398438 1405.933594 1023.589844 1410.410156 C 1012.785156 1414.886719 1001.875 1419.09375 990.859375 1423.035156 C 979.847656 1426.976562 968.742188 1430.644531 957.546875 1434.039062 C 946.355469 1437.4375 935.085938 1440.554688 923.738281 1443.398438 C 912.390625 1446.238281 900.980469 1448.800781 889.507812 1451.082031 C 878.035156 1453.367188 866.515625 1455.363281 854.941406 1457.082031 C 843.371094 1458.796875 831.765625 1460.230469 820.125 1461.375 C 808.484375 1462.523438 796.820312 1463.382812 785.136719 1463.957031 C 773.457031 1464.53125 761.765625 1464.816406 750.066406 1464.816406 C 738.371094 1464.816406 726.679688 1464.53125 714.996094 1463.957031 C 703.3125 1463.382812 691.652344 1462.523438 680.011719 1461.375 C 668.367188 1460.230469 656.761719 1458.796875 645.191406 1457.082031 C 633.621094 1455.363281 622.097656 1453.367188 610.625 1451.082031 C 599.152344 1448.800781 587.746094 1446.238281 576.398438 1443.398438 C 565.050781 1440.554688 553.78125 1437.4375 542.585938 1434.039062 C 531.394531 1430.644531 520.289062 1426.976562 509.277344 1423.035156 C 498.261719 1419.09375 487.351562 1414.886719 476.542969 1410.410156 C 465.738281 1405.933594 455.046875 1401.195312 444.472656 1396.195312 C 433.898438 1391.191406 423.453125 1385.933594 413.136719 1380.421875 C 402.820312 1374.90625 392.644531 1369.140625 382.613281 1363.128906 C 372.578125 1357.113281 362.699219 1350.859375 352.972656 1344.359375 C 343.246094 1337.863281 333.6875 1331.128906 324.292969 1324.160156 C 314.894531 1317.191406 305.675781 1309.996094 296.636719 1302.578125 C 287.59375 1295.15625 278.738281 1287.515625 270.070312 1279.660156 C 261.402344 1271.804688 252.933594 1263.742188 244.664062 1255.472656 C 236.390625 1247.199219 228.328125 1238.730469 220.472656 1230.0625 C 212.617188 1221.398438 204.980469 1212.542969 197.558594 1203.5 C 190.136719 1194.457031 182.941406 1185.238281 175.976562 1175.84375 C 169.007812 1166.449219 162.273438 1156.886719 155.773438 1147.160156 C 149.277344 1137.433594 143.019531 1127.554688 137.007812 1117.523438 C 130.992188 1107.488281 125.226562 1097.3125 119.714844 1087 C 114.199219 1076.683594 108.941406 1066.238281 103.941406 1055.664062 C 98.941406 1045.089844 94.199219 1034.398438 89.726562 1023.589844 C 85.25 1012.785156 81.039062 1001.871094 77.097656 990.859375 C 73.15625 979.847656 69.488281 968.742188 66.09375 957.546875 C 62.699219 946.355469 59.578125 935.085938 56.738281 923.738281 C 53.894531 912.390625 51.332031 900.980469 49.050781 889.507812 C 46.769531 878.035156 44.769531 866.515625 43.054688 854.941406 C 41.335938 843.371094 39.90625 831.765625 38.757812 820.125 C 37.613281 808.484375 36.753906 796.820312 36.179688 785.136719 C 35.605469 773.457031 35.316406 761.765625 35.316406 750.066406 C 35.316406 738.371094 35.605469 726.679688 36.179688 714.996094 C 36.753906 703.3125 37.613281 691.652344 38.757812 680.011719 C 39.90625 668.367188 41.335938 656.761719 43.054688 645.191406 C 44.769531 633.621094 46.769531 622.097656 49.050781 610.625 C 51.332031 599.152344 53.894531 587.746094 56.738281 576.398438 C 59.578125 565.050781 62.699219 553.78125 66.09375 542.585938 C 69.488281 531.394531 73.15625 520.289062 77.097656 509.277344 C 81.039062 498.261719 85.25 487.351562 89.722656 476.542969 C 94.199219 465.738281 98.941406 455.046875 103.941406 444.472656 C 108.941406 433.898438 114.199219 423.453125 119.714844 413.136719 C 125.226562 402.820312 130.992188 392.644531 137.007812 382.613281 C 143.019531 372.578125 149.277344 362.699219 155.773438 352.972656 C 162.273438 343.246094 169.007812 333.6875 175.976562 324.292969 C 182.941406 314.894531 190.136719 305.675781 197.558594 296.636719 C 204.980469 287.59375 212.617188 278.738281 220.472656 270.070312 C 228.328125 261.402344 236.390625 252.933594 244.664062 244.664062 C 252.933594 236.390625 261.402344 228.328125 270.070312 220.472656 C 278.738281 212.617188 287.59375 204.980469 296.636719 197.558594 C 305.675781 190.136719 314.894531 182.941406 324.292969 175.976562 C 333.6875 169.007812 343.246094 162.273438 352.972656 155.773438 C 362.699219 149.277344 372.578125 143.019531 382.613281 137.007812 C 392.644531 130.992188 402.820312 125.226562 413.136719 119.714844 C 423.453125 114.199219 433.898438 108.941406 444.472656 103.941406 C 455.046875 98.941406 465.738281 94.199219 476.542969 89.722656 C 487.351562 85.25 498.261719 81.039062 509.277344 77.097656 C 520.289062 73.15625 531.394531 69.488281 542.585938 66.09375 C 553.78125 62.699219 565.050781 59.578125 576.398438 56.738281 C 587.746094 53.894531 599.152344 51.332031 610.625 49.050781 C 622.097656 46.769531 633.621094 44.769531 645.191406 43.054688 C 656.761719 41.335938 668.367188 39.90625 680.011719 38.757812 C 691.652344 37.613281 703.3125 36.753906 714.996094 36.179688 C 726.679688 35.605469 738.371094 35.316406 750.066406 35.316406 C 761.765625 35.316406 773.457031 35.605469 785.136719 36.179688 C 796.820312 36.753906 808.484375 37.613281 820.125 38.757812 C 831.765625 39.90625 843.371094 41.335938 854.941406 43.054688 C 866.515625 44.769531 878.035156 46.769531 889.507812 49.050781 C 900.980469 51.332031 912.390625 53.894531 923.738281 56.738281 C 935.085938 59.578125 946.355469 62.699219 957.546875 66.09375 C 968.742188 69.488281 979.847656 73.15625 990.859375 77.097656 C 1001.875 81.039062 1012.785156 85.25 1023.589844 89.722656 C 1034.398438 94.199219 1045.089844 98.941406 1055.664062 103.941406 C 1066.238281 108.941406 1076.683594 114.199219 1087 119.714844 C 1097.316406 125.226562 1107.488281 130.992188 1117.523438 137.007812 C 1127.554688 143.019531 1137.433594 149.277344 1147.160156 155.773438 C 1156.886719 162.273438 1166.449219 169.007812 1175.84375 175.976562 C 1185.238281 182.941406 1194.457031 190.136719 1203.5 197.558594 C 1212.542969 204.980469 1221.398438 212.617188 1230.0625 220.472656 C 1238.730469 228.328125 1247.199219 236.390625 1255.472656 244.664062 C 1263.742188 252.933594 1271.808594 261.402344 1279.664062 270.070312 C 1287.519531 278.738281 1295.15625 287.59375 1302.578125 296.636719 C 1309.996094 305.675781 1317.191406 314.894531 1324.160156 324.292969 C 1331.128906 333.6875 1337.863281 343.246094 1344.359375 352.972656 C 1350.859375 362.699219 1357.113281 372.578125 1363.128906 382.613281 C 1369.144531 392.644531 1374.90625 402.820312 1380.421875 413.136719 C 1385.933594 423.453125 1391.191406 433.898438 1396.195312 444.472656 C 1401.195312 455.046875 1405.933594 465.738281 1410.410156 476.542969 C 1414.886719 487.351562 1419.09375 498.261719 1423.035156 509.277344 C 1426.976562 520.289062 1430.644531 531.394531 1434.039062 542.585938 C 1437.4375 553.78125 1440.554688 565.050781 1443.398438 576.398438 C 1446.238281 587.746094 1448.800781 599.152344 1451.082031 610.625 C 1453.367188 622.097656 1455.363281 633.621094 1457.082031 645.191406 C 1458.796875 656.761719 1460.230469 668.367188 1461.375 680.011719 C 1462.523438 691.652344 1463.382812 703.3125 1463.957031 714.996094 C 1464.53125 726.679688 1464.816406 738.371094 1464.816406 750.066406 Z M 1464.816406 750.066406 " fill-opacity="1" fill-rule="nonzero"/></g><path fill="#ffffff" d="M 363.339844 345.03125 C 339.546875 345.03125 320.238281 364.378906 320.238281 388.132812 L 320.238281 922.4375 C 320.238281 946.230469 339.585938 965.539062 363.339844 965.539062 L 1136.792969 965.539062 C 1160.585938 965.539062 1179.894531 946.191406 1179.894531 922.4375 L 1179.894531 388.132812 C 1179.894531 364.339844 1160.550781 345.03125 1136.792969 345.03125 Z M 1136.792969 986.179688 L 363.339844 986.179688 C 328.171875 986.179688 299.597656 957.605469 299.597656 922.4375 L 299.597656 388.132812 C 299.597656 352.964844 328.171875 324.390625 363.339844 324.390625 L 1136.792969 324.390625 C 1171.929688 324.390625 1200.539062 352.964844 1200.539062 388.132812 L 1200.539062 922.4375 C 1200.539062 957.570312 1171.929688 986.179688 1136.792969 986.179688 Z M 1136.792969 986.179688 " fill-opacity="1" fill-rule="evenodd"/><path fill="#ffffff" d="M 384.09375 901.683594 L 1116.078125 901.683594 L 1116.078125 408.886719 L 384.09375 408.886719 Z M 1126.34375 922.324219 L 373.753906 922.324219 C 368.046875 922.324219 363.414062 917.730469 363.414062 911.984375 L 363.414062 398.585938 C 363.414062 392.878906 368.011719 388.246094 373.753906 388.246094 L 1126.34375 388.246094 C 1132.050781 388.246094 1136.683594 392.839844 1136.683594 398.585938 L 1136.683594 912.023438 C 1136.683594 917.691406 1132.050781 922.324219 1126.34375 922.324219 Z M 1126.34375 922.324219 " fill-opacity="1" fill-rule="evenodd"/><path fill="#ffffff" d="M 553.832031 1155.140625 L 946.339844 1155.140625 L 874.589844 986.21875 L 828.339844 986.21875 L 873.589844 1092.730469 C 874.925781 1095.917969 874.628906 1099.585938 872.699219 1102.4375 C 870.8125 1105.328125 867.550781 1107.035156 864.101562 1107.035156 L 636.179688 1107.035156 C 632.695312 1107.035156 629.507812 1105.292969 627.582031 1102.4375 C 625.691406 1099.546875 625.320312 1095.917969 626.691406 1092.730469 L 671.945312 986.21875 L 625.691406 986.21875 Z M 961.90625 1175.746094 L 538.191406 1175.746094 C 534.707031 1175.746094 531.519531 1174.039062 529.59375 1171.148438 C 527.703125 1168.257812 527.332031 1164.589844 528.703125 1161.402344 L 609.238281 971.875 C 610.832031 968.058594 614.609375 965.613281 618.726562 965.613281 L 687.433594 965.613281 C 690.917969 965.613281 694.105469 967.355469 696.035156 970.246094 C 697.921875 973.136719 698.292969 976.765625 696.921875 979.953125 L 651.671875 1086.464844 L 848.425781 1086.464844 L 803.175781 979.953125 C 801.839844 976.765625 802.136719 973.136719 804.066406 970.246094 C 805.992188 967.355469 809.214844 965.648438 812.664062 965.648438 L 881.375 965.648438 C 885.523438 965.648438 889.265625 968.132812 890.859375 971.910156 L 971.394531 1161.441406 C 972.726562 1164.628906 972.429688 1168.296875 970.503906 1171.1875 C 968.578125 1174.003906 965.351562 1175.746094 961.90625 1175.746094 Z M 961.90625 1175.746094 " fill-opacity="1" fill-rule="evenodd"/><path fill="#ffffff" d="M 553.386719 456.695312 C 548.457031 456.695312 544.417969 460.734375 544.417969 465.664062 L 544.417969 789.796875 C 544.417969 794.761719 548.457031 798.765625 553.386719 798.765625 L 589.371094 798.765625 L 589.371094 617.316406 C 589.371094 600.269531 603.234375 586.40625 620.246094 586.40625 L 928.699219 586.40625 L 928.699219 546.34375 C 928.699219 541.417969 924.660156 537.375 919.730469 537.375 L 752.550781 537.375 C 742.730469 537.375 734.132812 532.964844 728.460938 524.960938 L 682.46875 460.402344 C 680.652344 457.882812 678.28125 456.621094 675.167969 456.621094 Z M 599.675781 819.445312 L 553.386719 819.445312 C 537.082031 819.445312 523.8125 806.175781 523.8125 789.871094 L 523.8125 465.703125 C 523.8125 449.394531 537.082031 436.128906 553.386719 436.128906 L 675.132812 436.128906 C 684.953125 436.128906 693.550781 440.539062 699.21875 448.542969 L 745.210938 513.066406 C 747.027344 515.585938 749.402344 516.84375 752.511719 516.84375 L 919.695312 516.84375 C 936 516.84375 949.269531 530.113281 949.269531 546.457031 L 949.269531 596.820312 C 949.269531 602.53125 944.671875 607.160156 938.929688 607.160156 L 620.132812 607.160156 C 614.464844 607.160156 609.90625 611.757812 609.90625 617.390625 L 609.90625 809.140625 C 609.980469 814.8125 605.382812 819.445312 599.675781 819.445312 Z M 599.675781 819.445312 " fill-opacity="1" fill-rule="evenodd"/><path fill="#ffffff" d="M 620.246094 607.085938 C 614.574219 607.085938 610.015625 612.386719 610.015625 618.945312 L 610.015625 842.015625 C 610.015625 848.539062 614.609375 853.875 620.246094 853.875 L 945.449219 853.875 C 951.121094 853.875 955.679688 848.574219 955.679688 842.015625 L 955.679688 618.945312 C 955.679688 612.425781 951.085938 607.085938 945.449219 607.085938 Z M 945.449219 874.515625 L 620.246094 874.515625 C 603.195312 874.515625 589.335938 859.953125 589.335938 842.050781 L 589.335938 618.984375 C 589.335938 601.082031 603.195312 586.519531 620.207031 586.519531 L 945.414062 586.519531 C 962.460938 586.519531 976.285156 601.085938 976.285156 618.984375 L 976.285156 842.050781 C 976.320312 859.953125 962.460938 874.515625 945.449219 874.515625 Z M 945.449219 874.515625 " fill-opacity="1" fill-rule="evenodd"/><path fill="#ffffff" d="M 670.757812 720.011719 C 665.050781 720.011719 660.417969 715.414062 660.417969 709.671875 L 660.417969 668.386719 L 659.230469 670.3125 C 656.230469 675.167969 649.855469 676.652344 645.039062 673.648438 C 640.21875 670.648438 638.699219 664.273438 641.703125 659.453125 L 661.972656 626.765625 C 664.382812 622.875 669.128906 621.023438 673.574219 622.28125 C 678.023438 623.542969 681.0625 627.582031 681.0625 632.214844 L 681.0625 709.746094 C 681.097656 715.378906 676.464844 720.011719 670.757812 720.011719 Z M 670.757812 720.011719 " fill-opacity="1" fill-rule="evenodd"/><path fill="#ffffff" d="M 693.808594 720.011719 L 650.484375 720.011719 C 644.777344 720.011719 640.144531 715.414062 640.144531 709.671875 C 640.144531 703.964844 644.742188 699.332031 650.484375 699.332031 L 693.808594 699.332031 C 699.515625 699.332031 704.148438 703.925781 704.148438 709.671875 C 704.113281 715.378906 699.515625 720.011719 693.808594 720.011719 Z M 693.808594 720.011719 " fill-opacity="1" fill-rule="evenodd"/><path fill="#ffffff" d="M 742.46875 642.480469 C 736.242188 642.480469 731.128906 647.558594 731.128906 653.820312 L 731.128906 688.027344 C 731.128906 694.253906 736.207031 699.367188 742.46875 699.367188 C 748.695312 699.367188 753.8125 694.292969 753.8125 688.027344 L 753.8125 653.820312 C 753.8125 647.59375 748.695312 642.480469 742.46875 642.480469 Z M 742.46875 720.011719 C 724.867188 720.011719 710.488281 705.667969 710.488281 688.027344 L 710.488281 653.820312 C 710.488281 636.21875 724.828125 621.835938 742.46875 621.835938 C 760.074219 621.835938 774.453125 636.179688 774.453125 653.820312 L 774.453125 688.027344 C 774.417969 705.632812 760.074219 720.011719 742.46875 720.011719 Z M 742.46875 720.011719 " fill-opacity="1" fill-rule="evenodd"/><path fill="#ffffff" d="M 821.816406 720.011719 C 816.109375 720.011719 811.476562 715.414062 811.476562 709.671875 L 811.476562 668.386719 L 810.289062 670.277344 C 807.289062 675.132812 800.914062 676.613281 796.097656 673.613281 C 791.242188 670.609375 789.757812 664.234375 792.761719 659.417969 L 813.035156 626.730469 C 815.441406 622.839844 820.1875 620.984375 824.632812 622.246094 C 829.082031 623.503906 832.121094 627.546875 832.121094 632.179688 L 832.121094 709.707031 C 832.121094 715.378906 827.523438 720.011719 821.816406 720.011719 Z M 821.816406 720.011719 " fill-opacity="1" fill-rule="evenodd"/><path fill="#ffffff" d="M 844.867188 720.011719 L 801.542969 720.011719 C 795.835938 720.011719 791.203125 715.414062 791.203125 709.671875 C 791.203125 703.964844 795.800781 699.332031 801.542969 699.332031 L 844.867188 699.332031 C 850.574219 699.332031 855.207031 703.925781 855.207031 709.671875 C 855.171875 715.378906 850.574219 720.011719 844.867188 720.011719 Z M 844.867188 720.011719 " fill-opacity="1" fill-rule="evenodd"/><path fill="#ffffff" d="M 893.527344 642.480469 C 887.304688 642.480469 882.1875 647.558594 882.1875 653.820312 L 882.1875 688.027344 C 882.1875 694.253906 887.265625 699.367188 893.527344 699.367188 C 899.753906 699.367188 904.871094 694.292969 904.871094 688.027344 L 904.871094 653.820312 C 904.832031 647.59375 899.753906 642.480469 893.527344 642.480469 Z M 893.527344 720.011719 C 875.925781 720.011719 861.546875 705.667969 861.546875 688.027344 L 861.546875 653.820312 C 861.546875 636.21875 875.886719 621.835938 893.527344 621.835938 C 911.167969 621.835938 925.511719 636.179688 925.511719 653.820312 L 925.511719 688.027344 C 925.476562 705.632812 911.132812 720.011719 893.527344 720.011719 Z M 893.527344 720.011719 " fill-opacity="1" fill-rule="evenodd"/><path fill="#ffffff" d="M 670.757812 839.125 C 665.050781 839.125 660.417969 834.527344 660.417969 828.785156 L 660.417969 787.5 L 659.230469 789.390625 C 656.230469 794.242188 649.855469 795.726562 645.039062 792.722656 C 640.183594 789.722656 638.699219 783.347656 641.703125 778.53125 L 661.972656 745.84375 C 664.382812 741.953125 669.128906 740.097656 673.574219 741.359375 C 678.023438 742.617188 681.0625 746.65625 681.0625 751.289062 L 681.0625 828.820312 C 681.097656 834.492188 676.464844 839.125 670.757812 839.125 Z M 670.757812 839.125 " fill-opacity="1" fill-rule="evenodd"/><path fill="#ffffff" d="M 693.808594 839.125 L 650.484375 839.125 C 644.777344 839.125 640.144531 834.527344 640.144531 828.785156 C 640.144531 823.078125 644.742188 818.445312 650.484375 818.445312 L 693.808594 818.445312 C 699.515625 818.445312 704.148438 823.039062 704.148438 828.785156 C 704.113281 834.492188 699.515625 839.125 693.808594 839.125 Z M 693.808594 839.125 " fill-opacity="1" fill-rule="evenodd"/><path fill="#ffffff" d="M 742.46875 761.628906 C 736.242188 761.628906 731.128906 766.707031 731.128906 772.972656 L 731.128906 807.179688 C 731.128906 813.402344 736.207031 818.519531 742.46875 818.519531 C 748.695312 818.519531 753.8125 813.441406 753.8125 807.179688 L 753.8125 772.972656 C 753.8125 766.707031 748.695312 761.628906 742.46875 761.628906 Z M 742.46875 839.125 C 724.867188 839.125 710.488281 824.78125 710.488281 807.140625 L 710.488281 772.933594 C 710.488281 755.328125 724.828125 740.949219 742.46875 740.949219 C 760.074219 740.949219 774.453125 755.292969 774.453125 772.933594 L 774.453125 807.140625 C 774.417969 824.78125 760.074219 839.125 742.46875 839.125 Z M 742.46875 839.125 " fill-opacity="1" fill-rule="evenodd"/><path fill="#ffffff" d="M 821.816406 839.125 C 816.109375 839.125 811.476562 834.527344 811.476562 828.785156 L 811.476562 787.5 L 810.289062 789.390625 C 807.289062 794.242188 800.914062 795.726562 796.097656 792.722656 C 791.242188 789.722656 789.757812 783.347656 792.761719 778.53125 L 813.035156 745.84375 C 815.441406 741.953125 820.1875 740.097656 824.632812 741.359375 C 829.082031 742.617188 832.121094 746.65625 832.121094 751.289062 L 832.121094 828.820312 C 832.121094 834.492188 827.523438 839.125 821.816406 839.125 Z M 821.816406 839.125 " fill-opacity="1" fill-rule="evenodd"/><path fill="#ffffff" d="M 844.867188 839.125 L 801.542969 839.125 C 795.835938 839.125 791.203125 834.527344 791.203125 828.785156 C 791.203125 823.078125 795.800781 818.445312 801.542969 818.445312 L 844.867188 818.445312 C 850.574219 818.445312 855.207031 823.039062 855.207031 828.785156 C 855.171875 834.492188 850.574219 839.125 844.867188 839.125 Z M 844.867188 839.125 " fill-opacity="1" fill-rule="evenodd"/><path fill="#ffffff" d="M 893.527344 761.628906 C 887.304688 761.628906 882.1875 766.707031 882.1875 772.972656 L 882.1875 807.179688 C 882.1875 813.402344 887.265625 818.519531 893.527344 818.519531 C 899.753906 818.519531 904.871094 813.441406 904.871094 807.179688 L 904.871094 772.972656 C 904.832031 766.707031 899.753906 761.628906 893.527344 761.628906 Z M 893.527344 839.125 C 875.925781 839.125 861.546875 824.78125 861.546875 807.140625 L 861.546875 772.933594 C 861.546875 755.328125 875.886719 740.949219 893.527344 740.949219 C 911.167969 740.949219 925.511719 755.292969 925.511719 772.933594 L 925.511719 807.140625 C 925.476562 824.78125 911.132812 839.125 893.527344 839.125 Z M 893.527344 839.125 " fill-opacity="1" fill-rule="evenodd"/></svg>